Coordinates
version=1
nRows=15
nColumns=46
inDegrees=yes

Units are S.I. units (second, meters, Newtons, ...)
Angles are in degrees.

endheader
time	pelvis_tilt	pelvis_list	pelvis_rotation	pelvis_tx	pelvis_ty	pelvis_tz	bb_angle	bb_tx	bb_ty	bb_tz	hip_flexion_r	hip_adduction_r	hip_rotation_r	knee_angle_r	knee_angle_r_beta	ankle_angle_r	subtalar_angle_r	mtp_angle_r	crank_angle_r	hip_flexion_l	hip_adduction_l	hip_rotation_l	knee_angle_l	knee_angle_l_beta	ankle_angle_l	subtalar_angle_l	mtp_angle_l	crank_angle_l	lumbar_extension	lumbar_bending	lumbar_rotation	arm_flex_r	arm_add_r	arm_rot_r	elbow_flex_r	pro_sup_r	wrist_flex_r	wrist_dev_r	arm_flex_l	arm_add_l	arm_rot_l	elbow_flex_l	pro_sup_l	wrist_flex_l	wrist_dev_l
      5.00000000	    -33.69924058	      3.33235456	     16.30639100	      0.42496553	      1.05286917	     -0.24423660	      0.00000000	      0.50000000	      0.00000000	      0.25000000	     35.07004011	    -14.67157369	     -5.36971503	     32.84800386	      0.57330582	    -16.14314619	     -4.78333848	      0.00000000	      0.00000000	     84.91013517	      8.14165258	      4.33410916	    110.50427937	      1.92866351	     22.01321175	      3.77006962	      0.00000000	      0.00000000	    -53.99791092	      1.61750251	    -15.60160494	     22.08904570	    -14.69911423	      8.82022967	    103.00347110	     53.19711334	      0.00000000	      0.00000000	     29.29643492	    -27.44465202	     11.89312906	    114.21775159	     52.19763951	      0.00000000	      0.00000000
      5.00500000	    -33.69451919	      2.86059776	     16.54244247	      0.42504322	      1.05446117	     -0.24482819	      0.00000000	      0.50000000	      0.00000000	      0.25000000	     34.95593808	    -14.40732018	     -5.92339964	     33.87624844	      0.59125207	    -16.24663385	     -4.79094532	      0.00000000	      0.00000000	     84.90321601	      7.96488772	      4.21950495	    109.08432482	      1.90388063	     23.04988125	      3.73638877	      0.00000000	      0.00000000	    -54.21274230	      2.18580987	    -15.45922539	     22.48278389	    -14.44473135	      8.81592562	    102.90742774	     53.18273269	      0.00000000	      0.00000000	     29.37827546	    -27.55267848	     11.83777570	    114.43171178	     52.21656856	      0.00000000	      0.00000000
      5.01000000	    -33.67845718	      2.43141570	     16.62369643	      0.42542813	      1.05612539	     -0.24528708	      0.00000000	      0.50000000	      0.00000000	      0.25000000	     34.90962213	    -14.07881799	     -6.19813743	     34.96742300	      0.61029666	    -16.46943924	     -4.75901473	      0.00000000	      0.00000000	     84.67062560	      7.68522428	      4.09382203	    107.43799190	      1.87514670	     23.94002668	      3.75134296	      0.00000000	      0.00000000	    -54.45626913	      2.63763144	    -15.13629521	     22.68392098	    -14.27564832	      8.82314013	    102.83211822	     53.17144319	      0.00000000	      0.00000000	     29.38260068	    -27.60111752	     11.80270220	    114.50958860	     52.22202766	      0.00000000	      0.00000000
      5.01500000	    -33.53129962	      2.18031149	     16.69893450	      0.42574981	      1.05785991	     -0.24588653	      0.00000000	      0.50000000	      0.00000000	      0.25000000	     34.86644692	    -13.95299993	     -6.49853345	     36.44310323	      0.63605214	    -16.28689196	     -4.62301828	      0.00000000	      0.00000000	     84.08855800	      7.53058787	      3.99758858	    105.63259254	      1.84363654	     25.49900850	      4.58953809	      0.00000000	      0.00000000	    -54.84522312	      2.99017640	    -15.20678648	     23.37516758	    -13.53133179	      8.58631028	    102.41061760	     53.09608758	      0.00000000	      0.00000000	     29.43388894	    -27.90978049	     11.62172784	    114.83554905	     52.22581152	      0.00000000	      0.00000000
      5.02000000	    -33.48271729	      1.67866326	     16.62306261	      0.42648559	      1.05944312	     -0.24636024	      0.00000000	      0.50000000	      0.00000000	      0.25000000	     35.00247605	    -13.54142552	     -6.77277861	     37.84124874	      0.66045438	    -16.47880406	     -4.58377064	      0.00000000	      0.00000000	     83.55041945	      7.14063633	      4.03012723	    103.64279235	      1.80890797	     26.21393992	      4.46570724	      0.00000000	      0.00000000	    -55.08407061	      3.42703367	    -14.70379879	     23.51769464	    -13.41557949	      8.60123438	    102.32366468	     53.08475706	      0.00000000	      0.00000000	     29.33619327	    -27.92297965	     11.57483487	    114.85694296	     52.22276505	      0.00000000	      0.00000000
      5.02500000	    -33.22445997	      1.33816117	     16.46031852	      0.42685266	      1.06092706	     -0.24681364	      0.00000000	      0.50000000	      0.00000000	      0.25000000	     35.19932954	    -13.25599167	     -7.02202844	     39.80481990	      0.69472517	    -16.35611482	     -4.67724752	      0.00000000	      0.00000000	     82.73676565	      6.69698432	      3.94389314	    101.68487356	      1.77473584	     27.21145753	      4.61210689	      0.00000000	      0.00000000	    -55.47841182	      3.74183168	    -14.33254623	     24.00646298	    -13.25485240	      8.41647618	    102.30187156	     53.06107232	      0.00000000	      0.00000000	     29.43056962	    -27.90287835	     11.45419351	    114.87074207	     52.20373728	      0.00000000	      0.00000000
      5.03000000	    -33.09378272	      0.89943505	     16.25252106	      0.42706156	      1.06254412	     -0.24700986	      0.00000000	      0.50000000	      0.00000000	      0.25000000	     35.55661171	    -12.82566529	     -7.01769282	     41.59751439	      0.72601359	    -16.42776266	     -4.61502350	      0.00000000	      0.00000000	     81.96027129	      6.13867273	      3.88764953	     99.38246395	      1.73455121	     27.71850714	      4.85151189	      0.00000000	      0.00000000	    -55.76989437	      4.08031073	    -13.72852462	     24.24754249	    -13.11793469	      8.32850637	    102.22521258	     53.04035389	      0.00000000	      0.00000000	     29.42555690	    -27.92834509	     11.35592004	    114.86351003	     52.18754065	      0.00000000	      0.00000000
      5.03500000	    -32.99987563	      0.83272325	     15.71706697	      0.42753042	      1.06388114	     -0.24681677	      0.00000000	      0.50000000	      0.00000000	      0.25000000	     36.17033051	    -12.57140321	     -6.51849169	     43.78537391	      0.76419894	    -16.14466662	     -4.52046927	      0.00000000	      0.00000000	     81.02351818	      5.48772555	      3.59585771	     97.06596763	      1.69412073	     28.26044164	      5.25175057	      0.00000000	      0.00000000	    -56.02361393	      3.80629143	    -13.32047422	     24.65842684	    -12.90265982	      7.97513683	    101.99745343	     52.71482587	      0.00000000	      0.00000000	     29.69613128	    -27.71471756	     11.22909552	    114.46190514	     51.93844793	      0.00000000	      0.00000000
      5.04000000	    -32.96902558	      0.53952477	     15.11694098	      0.42836248	      1.06517100	     -0.24652213	      0.00000000	      0.50000000	      0.00000000	      0.25000000	     36.86129905	    -12.02312764	     -5.97691615	     45.83432020	      0.79995980	    -16.18939681	     -4.57911325	      0.00000000	      0.00000000	     80.13372944	      4.63575065	      3.43975960	     94.65714296	      1.65207881	     28.52979548	      5.64299354	      0.00000000	      0.00000000	    -56.26232136	      3.57791857	    -12.45255368	     24.47696127	    -12.87429095	      7.41978402	    102.15357820	     52.69426195	      0.00000000	      0.00000000	     29.27672281	    -26.60948207	     10.76133974	    114.59816071	     51.88598966	      0.00000000	      0.00000000
      5.04500000	    -32.60232084	      0.50307574	     14.48739989	      0.42877786	      1.06657425	     -0.24622669	      0.00000000	      0.50000000	      0.00000000	      0.25000000	     37.37449833	    -11.68723955	     -5.41148214	     48.19710083	      0.84119810	    -16.19266203	     -4.66312823	      0.00000000	      0.00000000	     78.84112062	      3.81255000	      3.04812896	     92.25609138	      1.61017255	     28.65515217	      5.98404231	      0.00000000	      0.00000000	    -56.80968832	      3.37594410	    -11.83978670	     24.71615469	    -12.95913253	      7.24073102	    102.34605728	     52.72236233	      0.00000000	      0.00000000	     29.47329173	    -26.51080716	     10.73344645	    114.37093511	     51.83053033	      0.00000000	      0.00000000
      5.05000000	    -32.54530880	      0.23343047	     13.93436387	      0.42966114	      1.06752283	     -0.24630961	      0.00000000	      0.50000000	      0.00000000	      0.25000000	     38.16399924	    -11.22987450	     -4.94884418	     50.47625336	      0.88097682	    -16.22104785	     -4.76985560	      0.00000000	      0.00000000	     77.84173102	      3.09044269	      2.89485093	     89.81618033	      1.56758807	     28.63858355	      6.36420149	      0.00000000	      0.00000000	    -56.90336120	      3.28806411	    -11.05542790	     24.76224805	    -13.13608128	      7.10224657	    102.44500972	     52.73798684	      0.00000000	      0.00000000	     29.44914724	    -26.32395696	     10.86955093	    114.06332977	     51.78680127	      0.00000000	      0.00000000
      5.05500000	    -32.33124955	      0.09333637	     13.32964615	      0.43031429	      1.06848358	     -0.24644581	      0.00000000	      0.50000000	      0.00000000	      0.25000000	     38.88768924	    -10.85726558	     -4.45005512	     52.89531966	      0.92319749	    -16.27254400	     -4.89190676	      0.00000000	      0.00000000	     76.64564127	      2.34140487	      2.57252731	     87.35884805	      1.52469953	     28.50982827	      6.79829418	      0.00000000	      0.00000000	    -57.16687423	      3.13398034	    -10.32139746	     24.80407172	    -13.40403317	      6.97860154	    102.56005826	     52.75669825	      0.00000000	      0.00000000	     29.54956424	    -26.08661779	     11.07888952	    113.70973291	     51.74251428	      0.00000000	      0.00000000
      5.06000000	    -32.20202429	      0.02375409	     12.79184337	      0.43088829	      1.06920983	     -0.24692172	      0.00000000	      0.50000000	      0.00000000	      0.25000000	     39.73555391	    -10.64578556	     -3.97589799	     55.38579573	      0.96666449	    -16.25605626	     -4.88127400	      0.00000000	      0.00000000	     75.50681818	      1.74047196	      2.18083452	     84.91486567	      1.48204399	     28.20951651	      7.28370922	      0.00000000	      0.00000000	    -57.29637717	      2.96740186	     -9.51109945	     24.63242400	    -13.88221915	      6.78153961	    102.82062981	     52.80152242	      0.00000000	      0.00000000	     29.86713613	    -25.70775779	     11.55147351	    113.12240462	     51.68177825	      0.00000000	      0.00000000
      5.06500000	    -31.90323801	     -0.25778825	     12.42819846	      0.43151128	      1.07004192	     -0.24767536	      0.00000000	      0.50000000	      0.00000000	      0.25000000	     40.34833801	    -10.32015796	     -3.79191147	     57.79257043	      1.00867064	    -16.13661441	     -4.84614726	      0.00000000	      0.00000000	     74.22894016	      1.28478318	      2.09981466	     82.46396817	      1.43926776	     27.68214165	      7.46367136	      0.00000000	      0.00000000	    -57.57649970	      3.03224244	     -7.28146116	     22.98486726	    -15.26843434	      4.99499897	    104.68966782	     53.05777423	      0.00000000	      0.00000000	     32.09008975	    -24.40685652	     14.27311474	    110.65714913	     51.47736809	      0.00000000	      0.00000000
      5.07000000	    -31.64453857	     -0.45561764	     11.87220578	      0.43211863	      1.07054256	     -0.24803538	      0.00000000	      0.50000000	      0.00000000	      0.25000000	     41.09193374	     -9.89994848	     -3.36196747	     60.28141823	      1.05210923	    -15.96839451	     -5.14791653	      0.00000000	      0.00000000	     72.94532235	      0.64761579	      1.86649545	     80.07577267	      1.39758588	     27.01482246	      7.64565067	      0.00000000	      0.00000000	    -57.80314839	      3.02996777	     -6.61299392	     23.18512239	    -15.47642626	      4.90478914	    104.71468228	     53.06027462	      0.00000000	      0.00000000	     31.90384313	    -24.22480082	     14.33501441	    110.56694154	     51.46593837	      0.00000000	      0.00000000
